<svg width="379" height="525" viewBox="0 0 379 525" fill="none" xmlns="http://www.w3.org/2000/svg">
<g opacity="0.25">
<path d="M118.894 122.748C111.375 80.1052 147.721 26.0477 147.721 26.0477C147.721 26.0477 200.364 64.4141 207.883 107.057C215.402 149.7 179.056 203.757 179.056 203.757C179.056 203.757 126.413 165.391 118.894 122.748Z" fill="#EBEBEB"/>
<path d="M117.565 122.983C118.451 122.826 119.337 122.67 120.224 122.514C119.206 115.873 119.275 109.087 120.041 102.391C123.47 75.582 135.759 50.2434 150.242 27.7425L145.932 28.5024C171.717 49.3862 197.572 75.4621 204.337 107.682C209 140.273 193.623 173.619 176.535 202.063L180.845 201.303C159.54 185.112 139.325 165.505 126.935 141.485C123.924 135.455 121.539 129.102 120.224 122.514C119.337 122.67 118.451 122.826 117.565 122.983C118.636 129.917 120.849 136.636 123.723 143.009C135.654 168.452 155.514 188.907 177.267 206.212L179.863 208.061L181.577 205.452C199.828 176.253 216.378 142.951 211.428 106.432C211.428 106.432 211.428 106.432 211.428 106.432C203.59 70.4222 176.647 44.7888 149.51 23.5929L146.913 21.7437L145.2 24.3529C130.678 48.0546 119.012 74.0683 116.502 102.057C115.981 109.029 116.2 116.1 117.565 122.983ZM120.224 122.514L117.565 122.983L120.224 122.514Z" fill="#F5F5F5"/>
<path d="M23.8164 187.155L100.771 198.531C139.204 204.213 169.685 233.859 176.431 272.119L180.801 296.901L188.634 341.328L136.573 333.632C83.2754 325.753 41.0058 284.641 31.6502 231.582L23.8164 187.155Z" fill="#D6D6D6"/>
<path d="M100.573 199.867C100.705 198.976 100.837 198.086 100.968 197.196C92.5011 195.792 84.033 194.396 75.5637 193.008C58.4412 190.201 41.3141 187.424 24.1826 184.678L20.7827 184.134L21.3501 187.59C23.7807 202.431 26.234 217.268 28.71 232.101C35.8772 277.658 70.1587 317.775 114.252 332.008C121.348 334.365 128.652 336.095 136.049 337.177C153.407 339.717 170.769 342.226 188.135 344.703L192.796 345.416L191.994 340.736C189.308 325.94 186.6 311.148 183.868 296.36C182.345 288.111 180.814 279.864 179.276 271.617C173.989 242.066 153.289 216.062 126.109 204.235C118.107 200.69 109.61 198.319 100.968 197.196C100.837 198.086 100.705 198.976 100.573 199.867C108.919 201.25 117.039 203.815 124.62 207.463C150.376 219.672 169.171 244.828 173.586 272.621C174.961 280.896 176.344 289.169 177.733 297.441C180.224 312.272 182.738 327.098 185.274 341.92L189.133 337.953C171.793 335.3 154.447 332.678 137.097 330.086C130.112 329.043 123.22 327.4 116.522 325.175C74.9406 311.72 42.2553 274.347 34.5903 231.064C31.8438 216.279 29.0746 201.497 26.2827 186.72L23.4502 189.632C40.6436 191.96 57.8415 194.258 75.0438 196.525C83.5526 197.646 92.0624 198.76 100.573 199.867ZM100.968 197.196L100.573 199.867L100.968 197.196Z" fill="#E0E0E0"/>
<path d="M52.0176 347.092L128.972 358.469C167.405 364.15 197.886 393.796 204.632 432.057L209.002 456.838L216.836 501.265L164.774 493.569C111.477 485.69 69.207 444.578 59.8513 391.52L52.0176 347.092Z" fill="#C2C2C2"/>
<path d="M128.775 359.804C128.906 358.914 129.038 358.023 129.169 357.133C120.702 355.73 112.234 354.334 103.765 352.945C86.6424 350.138 69.5153 347.362 52.3838 344.615L48.9839 344.071L49.5513 347.527C51.9819 362.368 54.4352 377.205 56.9112 392.038C64.0784 437.595 98.3598 477.712 142.454 491.945C149.549 494.303 156.853 496.033 164.25 497.115C181.608 499.654 198.97 502.163 216.337 504.641L220.997 505.353L220.196 500.673C217.51 485.877 214.801 471.085 212.069 456.297C210.546 448.049 209.015 439.801 207.477 431.555C202.191 402.003 181.49 375.999 154.31 364.172C146.308 360.627 137.811 358.257 129.169 357.133C129.038 358.023 128.906 358.914 128.775 359.804C137.12 361.187 145.24 363.753 152.821 367.4C178.577 379.609 197.372 404.766 201.787 432.558C203.162 440.833 204.545 449.107 205.934 457.379C208.425 472.209 210.939 487.036 213.475 501.858L217.335 497.89C199.994 495.237 182.648 492.615 165.299 490.024C158.313 488.981 151.421 487.338 144.724 485.112C103.142 471.658 70.4564 434.285 62.7915 391.001C60.045 376.216 57.2758 361.435 54.4839 346.658L51.6513 349.57C68.8447 351.898 86.0426 354.195 103.245 356.462C111.754 357.584 120.264 358.698 128.775 359.804ZM129.169 357.133L128.775 359.804L129.169 357.133Z" fill="#CCCCCC"/>
<path d="M319.258 135.069L250.835 172.079C216.663 190.563 198.16 228.846 204.906 267.106L209.276 291.888L217.11 336.315L263.399 311.277C310.788 285.645 336.447 232.555 327.092 179.496L319.258 135.069Z" fill="#D6D6D6"/>
<path d="M251.478 173.266C251.049 172.475 250.621 171.683 250.193 170.892C257.669 166.677 265.149 162.469 272.633 158.268C287.763 149.774 302.907 141.306 318.066 132.866L321.075 131.193L321.724 134.634C324.516 149.411 327.285 164.193 330.032 178.978C338.878 224.239 320.385 273.661 283.818 302.117C277.957 306.759 271.685 310.883 265.104 314.43C249.662 322.753 234.205 331.048 218.733 339.316L214.597 341.58L213.75 336.908C211.213 322.085 208.7 307.259 206.209 292.429C204.819 284.157 203.437 275.883 202.061 267.608C196.922 238.03 207.48 206.515 228.976 186.105C235.283 180.037 242.457 174.903 250.193 170.892C250.621 171.683 251.049 172.475 251.478 173.266C244.108 177.421 237.356 182.608 231.479 188.629C211.452 208.911 202.394 238.979 207.752 266.605C209.289 274.851 210.82 283.098 212.344 291.347C215.075 306.135 217.784 320.927 220.47 335.723L215.487 333.314C230.874 324.89 246.277 316.494 261.694 308.125C267.901 304.756 273.816 300.854 279.348 296.472C313.821 269.608 331.753 223.31 324.151 180.015C321.675 165.182 319.222 150.345 316.792 135.504L320.449 137.272C305.089 145.34 289.714 153.381 274.324 161.395C266.712 165.358 259.097 169.316 251.478 173.266ZM250.193 170.892L251.478 173.266L250.193 170.892Z" fill="#E0E0E0"/>
<path d="M347.459 295.007L279.036 332.017C244.864 350.5 226.361 388.783 233.108 427.044L237.477 451.825L245.311 496.253L291.6 471.215C338.989 445.582 364.648 392.492 355.293 339.434L347.459 295.007Z" fill="#C2C2C2"/>
<path d="M279.679 333.204C279.25 332.412 278.822 331.621 278.394 330.829C285.871 326.615 293.351 322.407 300.834 318.205C315.964 309.711 331.109 301.244 346.268 292.804L349.276 291.13L349.925 294.572C352.717 309.349 355.486 324.13 358.233 338.916C367.079 384.176 348.586 433.599 312.019 462.054C306.158 466.697 299.886 470.82 293.305 474.367C277.863 482.69 262.406 490.986 246.934 499.254L242.798 501.517L241.951 496.845C239.415 482.023 236.901 467.197 234.41 452.366C233.02 444.094 231.638 435.82 230.262 427.546C225.123 397.968 235.681 366.453 257.177 346.042C263.484 339.974 270.658 334.84 278.394 330.829C278.822 331.621 279.25 332.412 279.679 333.204C272.309 337.358 265.557 342.546 259.681 348.566C239.653 368.848 230.595 398.916 235.953 426.542C237.491 434.788 239.021 443.036 240.545 451.285C243.276 466.072 245.985 480.864 248.671 495.66L243.688 493.252C259.075 484.828 274.478 476.431 289.895 468.063C296.103 464.693 302.017 460.792 307.549 456.41C342.022 429.545 359.954 383.247 352.353 339.952C349.877 325.119 347.423 310.282 344.993 295.441L348.65 297.209C333.29 305.277 317.915 313.318 302.526 321.332C294.914 325.296 287.298 329.253 279.679 333.204ZM278.394 330.829L279.679 333.204L278.394 330.829Z" fill="#CCCCCC"/>
</g>
</svg>
